<svg width="21" height="19" viewBox="0 0 21 19" fill="none" xmlns="http://www.w3.org/2000/svg">
<path d="M19.6946 4.82497C19.6736 4.82497 19.6421 4.82497 19.6106 4.82497C14.0552 4.35832 8.51023 4.18222 3.01777 4.64887L0.875405 4.82497C0.43433 4.86019 0.0457643 4.59605 0.0037572 4.22625C-0.0382499 3.85645 0.276804 3.53948 0.707377 3.50426L2.84974 3.32817C8.43672 2.85271 14.0972 3.03761 19.7681 3.50426C20.1987 3.53948 20.5138 3.86525 20.4718 4.22625C20.4403 4.56963 20.0937 4.82497 19.6946 4.82497Z" fill="#F76C5E"/>
<path d="M6.56844 3.93571C6.52644 3.93571 6.48443 3.93571 6.43192 3.92691C6.01185 3.86527 5.7178 3.52189 5.79131 3.1697L6.02235 2.01628C6.19038 1.17103 6.42142 0 8.86829 0H11.6198C14.0772 0 14.3082 1.21505 14.4657 2.02509L14.6968 3.1697C14.7703 3.53069 14.4762 3.87408 14.0562 3.92691C13.6256 3.98854 13.216 3.74201 13.153 3.38982L12.922 2.2452C12.775 1.47919 12.7434 1.32951 11.6303 1.32951H8.87879C7.76565 1.32951 7.74464 1.45278 7.58712 2.2364L7.34557 3.38101C7.28256 3.70679 6.94651 3.93571 6.56844 3.93571Z" fill="#F76C5E"/>
<path d="M13.6147 18.9303H6.87258C3.20746 18.9303 3.06044 17.2309 2.94492 15.8574L2.2623 6.99103C2.2308 6.63004 2.56685 6.31308 2.99743 6.28666C3.4385 6.26905 3.80606 6.542 3.83757 6.90299L4.52018 15.7694C4.6357 17.1077 4.67771 17.6096 6.87258 17.6096H13.6147C15.8201 17.6096 15.8621 17.1077 15.9671 15.7694L16.6498 6.90299C16.6813 6.542 17.0593 6.26905 17.4899 6.28666C17.9205 6.31308 18.2565 6.62123 18.225 6.99103L17.5424 15.8574C17.4269 17.2309 17.2799 18.9303 13.6147 18.9303Z" fill="#F76C5E"/>
<path d="M11.9868 14.0876H8.48968C8.05909 14.0876 7.70203 13.7882 7.70203 13.4272C7.70203 13.0662 8.05909 12.7668 8.48968 12.7668H11.9868C12.4173 12.7668 12.7744 13.0662 12.7744 13.4272C12.7744 13.7882 12.4173 14.0876 11.9868 14.0876Z" fill="#F76C5E"/>
<path d="M12.8688 10.5657H7.61796C7.18738 10.5657 6.83032 10.2663 6.83032 9.90533C6.83032 9.54433 7.18738 9.24497 7.61796 9.24497H12.8688C13.2994 9.24497 13.6565 9.54433 13.6565 9.90533C13.6565 10.2663 13.2994 10.5657 12.8688 10.5657Z" fill="#F76C5E"/>
</svg>
