<svg width="156" height="31" viewBox="0 0 156 31" fill="none" xmlns="http://www.w3.org/2000/svg">
<path d="M4.95683 17.88V23H0.732833V0.151999H4.95683V13.72L10.0768 7.736H15.2288L9.34083 14.168L15.5168 23H10.4928L6.20483 16.632L4.95683 17.88ZM16.2556 7.736H20.7036L22.6556 15.832L23.2316 19.832H23.3596L24.0316 15.832L25.9196 7.736H30.3996L32.3196 15.832L32.9916 19.832H33.1196L33.7916 15.832L35.6796 7.736H39.9996L35.7756 23H30.8156L28.8316 14.744L28.1596 11.064L27.4556 14.744L25.4716 23H20.5116L16.2556 7.736ZM42.5208 23V7.736H46.7768V23H42.5208ZM44.6648 4.472C43.9395 4.472 43.3742 4.26933 42.9688 3.864C42.5635 3.43733 42.3608 2.91467 42.3608 2.296C42.3608 1.67733 42.5635 1.16533 42.9688 0.759998C43.3742 0.333332 43.9395 0.119999 44.6648 0.119999C45.3688 0.119999 45.9235 0.333332 46.3288 0.759998C46.7555 1.16533 46.9688 1.67733 46.9688 2.296C46.9688 2.91467 46.7662 3.43733 46.3608 3.864C45.9555 4.26933 45.3902 4.472 44.6648 4.472ZM55.3006 17.88V23H51.0766V0.151999H55.3006V13.72L60.4206 7.736H65.5726L59.6846 14.168L65.8606 23H60.8366L56.5486 16.632L55.3006 17.88ZM67.9188 23V7.736H71.2148L71.6948 10.488C72.0575 9.67733 72.6335 8.96267 73.4228 8.344C74.2122 7.72533 75.2042 7.416 76.3988 7.416C76.8895 7.416 77.3268 7.46933 77.7108 7.576C78.0948 7.68267 78.4148 7.81067 78.6708 7.96L77.9668 11.32C77.7322 11.192 77.4335 11.0853 77.0708 11C76.7082 10.8933 76.2815 10.84 75.7908 10.84C74.7455 10.84 73.8708 11.192 73.1668 11.896C72.4842 12.5787 72.1428 13.7093 72.1428 15.288V23H67.9188ZM93.1751 16.472H83.0311V16.6C83.0311 17.816 83.4577 18.7227 84.3111 19.32C85.1644 19.9173 86.2631 20.216 87.6071 20.216C88.4604 20.216 89.2071 20.1307 89.8471 19.96C90.5084 19.7893 91.1058 19.5867 91.6391 19.352L92.4071 22.328C91.8311 22.6053 91.1057 22.84 90.2311 23.032C89.3564 23.2453 88.3218 23.352 87.1271 23.352C85.9751 23.352 84.8871 23.2027 83.8631 22.904C82.8604 22.584 81.9751 22.104 81.2071 21.464C80.4604 20.824 79.8631 20.0133 79.4151 19.032C78.9671 18.0507 78.7431 16.8773 78.7431 15.512C78.7431 14.296 78.9244 13.1973 79.2871 12.216C79.6497 11.2133 80.1617 10.36 80.8231 9.656C81.5057 8.952 82.3164 8.408 83.2551 8.024C84.1937 7.61867 85.2391 7.416 86.3911 7.416C88.4604 7.416 90.1031 8.04533 91.3191 9.304C92.5564 10.5627 93.1751 12.3227 93.1751 14.584V16.472ZM88.8231 13.56C88.8231 13.1547 88.7697 12.76 88.6631 12.376C88.5777 11.992 88.4284 11.6613 88.2151 11.384C88.0017 11.0853 87.7351 10.8507 87.4151 10.68C87.0951 10.5093 86.7004 10.424 86.2311 10.424C85.3777 10.424 84.6737 10.712 84.1191 11.288C83.5644 11.864 83.2337 12.6427 83.1271 13.624L88.8231 13.56ZM103.369 23.352C102.814 23.352 102.259 23.2773 101.705 23.128C101.171 23 100.723 22.8293 100.361 22.616V30.36H96.1368V7.672H99.3688L99.8168 9.368C100.435 8.77067 101.139 8.30133 101.929 7.96C102.718 7.59733 103.603 7.416 104.585 7.416C106.59 7.416 108.169 8.09867 109.321 9.464C110.494 10.808 111.081 12.6747 111.081 15.064C111.081 16.408 110.878 17.6027 110.473 18.648C110.068 19.672 109.513 20.536 108.809 21.24C108.105 21.944 107.284 22.4773 106.345 22.84C105.406 23.1813 104.414 23.352 103.369 23.352ZM103.433 10.616C102.729 10.616 102.11 10.7867 101.577 11.128C101.043 11.448 100.638 11.7787 100.361 12.12V19.416C101.022 19.9493 101.843 20.216 102.825 20.216C103.294 20.216 103.753 20.1307 104.201 19.96C104.67 19.768 105.086 19.48 105.449 19.096C105.833 18.6907 106.132 18.168 106.345 17.528C106.58 16.888 106.697 16.1093 106.697 15.192C106.697 14.5307 106.622 13.9227 106.473 13.368C106.345 12.8133 106.142 12.3333 105.865 11.928C105.587 11.5227 105.246 11.2027 104.841 10.968C104.435 10.7333 103.966 10.616 103.433 10.616ZM128.923 15.256C128.923 16.5147 128.72 17.6453 128.315 18.648C127.91 19.6507 127.344 20.504 126.619 21.208C125.915 21.8907 125.083 22.424 124.123 22.808C123.163 23.1707 122.128 23.352 121.019 23.352C119.91 23.352 118.875 23.1813 117.915 22.84C116.976 22.4987 116.155 21.9973 115.451 21.336C114.768 20.6747 114.224 19.864 113.819 18.904C113.435 17.9227 113.243 16.8133 113.243 15.576C113.243 14.2747 113.446 13.1227 113.851 12.12C114.256 11.096 114.811 10.2427 115.515 9.56C116.24 8.856 117.083 8.32267 118.043 7.96C119.003 7.59733 120.038 7.416 121.147 7.416C122.256 7.416 123.28 7.58667 124.219 7.928C125.179 8.26933 126 8.77067 126.683 9.432C127.387 10.072 127.931 10.8827 128.315 11.864C128.72 12.8453 128.923 13.976 128.923 15.256ZM124.539 15.416C124.539 14.5413 124.443 13.7947 124.251 13.176C124.059 12.5573 123.803 12.056 123.483 11.672C123.163 11.288 122.79 11.0107 122.363 10.84C121.936 10.648 121.499 10.552 121.051 10.552C120.603 10.552 120.176 10.6373 119.771 10.808C119.366 10.9573 119.003 11.224 118.683 11.608C118.363 11.9707 118.107 12.4613 117.915 13.08C117.723 13.6987 117.627 14.4773 117.627 15.416C117.627 16.248 117.723 16.9733 117.915 17.592C118.107 18.1893 118.363 18.68 118.683 19.064C119.024 19.448 119.398 19.736 119.803 19.928C120.23 20.12 120.667 20.216 121.115 20.216C121.563 20.216 121.99 20.1413 122.395 19.992C122.8 19.8213 123.163 19.544 123.483 19.16C123.803 18.776 124.059 18.2853 124.251 17.688C124.443 17.0693 124.539 16.312 124.539 15.416ZM131.95 23V7.736H135.246L135.726 10.488C136.089 9.67733 136.665 8.96267 137.454 8.344C138.243 7.72533 139.235 7.416 140.43 7.416C140.921 7.416 141.358 7.46933 141.742 7.576C142.126 7.68267 142.446 7.81067 142.702 7.96L141.998 11.32C141.763 11.192 141.465 11.0853 141.102 11C140.739 10.8933 140.313 10.84 139.822 10.84C138.777 10.84 137.902 11.192 137.198 11.896C136.515 12.5787 136.174 13.7093 136.174 15.288V23H131.95ZM154.508 10.808H150.444V17.848C150.444 18.5733 150.604 19.0747 150.924 19.352C151.265 19.608 151.713 19.736 152.268 19.736C152.694 19.736 153.132 19.6933 153.58 19.608C154.028 19.5227 154.39 19.4053 154.668 19.256L155.308 22.232C154.945 22.4027 154.401 22.5733 153.676 22.744C152.95 22.9147 152.182 23 151.372 23C149.516 23 148.193 22.6373 147.404 21.912C146.614 21.1653 146.22 20.056 146.22 18.584V10.808H143.852V7.736H146.22V3.032H150.444V7.736H154.508V10.808Z" fill="#F7F5FB"/>
</svg>
