<svg width="30" height="32" viewBox="0 0 30 32" fill="none" xmlns="http://www.w3.org/2000/svg">
<path d="M28.52 2L27.0467 3.47333" stroke="#F7F5FB" stroke-width="2.21" stroke-linecap="round" stroke-linejoin="round"/>
<path d="M2 2L3.47333 3.47333" stroke="#F7F5FB" stroke-width="2.21" stroke-linecap="round" stroke-linejoin="round"/>
<path d="M28.52 22.6267L27.0467 21.1533" stroke="#F7F5FB" stroke-width="2.21" stroke-linecap="round" stroke-linejoin="round"/>
<path d="M2 22.6267L3.47333 21.1533" stroke="#F7F5FB" stroke-width="2.21" stroke-linecap="round" stroke-linejoin="round"/>
<path d="M10.84 25.5733H19.68" stroke="#F7F5FB" stroke-width="2.21" stroke-linecap="round" stroke-linejoin="round"/>
<path d="M12.3133 29.9933H18.2067" stroke="#F7F5FB" stroke-width="2.21" stroke-linecap="round" stroke-linejoin="round"/>
<path d="M15.2597 3.47333C9.36622 3.47333 6.34907 6.34675 6.41977 10.84C6.45424 13.0307 7.15622 14.5233 8.62977 15.9967C10.1033 17.47 10.84 18.2067 10.8398 21.1533H19.6797C19.68 18.2068 20.4167 17.47 21.8896 15.9968C23.3627 14.5235 24.0654 13.0307 24.0997 10.84C24.1704 6.34675 21.1533 3.47333 15.2597 3.47333Z" stroke="#F7F5FB" stroke-width="2.21" stroke-linecap="round" stroke-linejoin="round"/>
</svg>
